<svg xmlns="http://www.w3.org/2000/svg" xmlns:xlink="http://www.w3.org/1999/xlink" width="1246" height="162" viewBox="0 0 1246 162">
    <defs>
        <path id="prefix__a" d="M0 0.253L112.449 0.253 112.449 160.84 0 160.84z"/>
        <path id="prefix__c" d="M0 160.859L430.964 160.859 430.964 0.054 0 0.054z"/>
    </defs>
    <g fill="none" fill-rule="evenodd">
        <g transform="translate(0 1)">
            <g transform="translate(0 .018)">
                <mask id="prefix__b" fill="#fff">
                    <use xlink:href="#prefix__a"/>
                </mask>
                <path fill="#FFF" d="M60.817 16.379H17.25v68.757h43.567c10.378 0 18.703-3.132 24.976-9.402 6.27-6.275 9.409-14.599 9.409-24.975 0-10.376-3.138-18.703-9.409-24.97-6.273-6.275-14.598-9.41-24.976-9.41zM0 .253h60.818c14.857 0 27.178 4.814 36.959 14.446 9.78 9.63 14.673 21.634 14.673 36.003 0 14.374-4.91 26.394-14.727 36.06-9.82 9.673-22.12 14.503-36.905 14.503H17.25v59.575H0V.253z" mask="url(#prefix__b)"/>
            </g>
            <mask id="prefix__d" fill="#fff">
                <use xlink:href="#prefix__c"/>
            </mask>
            <path fill="#FFF" d="M131.683 160.859L149.64 160.859 149.64.054 131.683.054zM198.858 90.775L281.628.054 303.415.054 242.545 66.667 309.256 160.859 288.478 160.859 230.978 79.337 198.858 113.763 198.858 160.859 181.563 160.859 181.563.054 198.858.054zM336.37 144.825L430.964 144.825 430.964 160.859 319.233 160.859 319.233.054 428.624.054 428.624 16.202 336.37 16.202 336.37 69.021 410.375 69.021 410.375 85.053 336.37 85.053z" mask="url(#prefix__d)"/>
        </g>
        <path fill="#00DA00" d="M449 0L532.431 80.997 449.034 162 493.605 162 577 80.997 493.605 0z"/>
    </g>
</svg>
